<svg viewBox="0 0 256 256" version="1.1" id="root" xmlns="http://www.w3.org/2000/svg"
   xmlns:svg="http://www.w3.org/2000/svg">
   <path style="fill-rule:evenodd;stroke-width:0.959083"
      d="m 115.07857,127.84053 c 0,7.13644 5.78603,12.92226 12.92226,12.92226 7.13624,0 12.92074,-5.78582 12.92074,-12.92226 0,-5.31728 -3.21147,-9.88441 -7.80131,-11.86714 1.57436,-0.144 2.80702,-1.4677 2.80702,-3.07944 0,-1.70841 -1.38387,-3.09359 -3.09229,-3.09359 -0.51768,0 -1.00573,0.1264 -1.43441,0.3512 0.0464,-2.86507 0.36784,-6.66095 0.62516,-7.75498 0.25766,-1.09401 2.31674,-0.70688 3.66826,0.19388 1.86609,1.24403 4.64877,0.70666 4.64877,-1.89942 0,-1.827417 -2.26825,-3.02964 -3.74834,-1.993552 -1.71275,1.198948 -4.29087,-1.118828 -3.66806,-3.18629 4.44015,-14.735271 4.57704,-33.394945 -0.31335,-45.748944 -0.99585,-2.515546 -1.12103,-3.216992 -0.4776,-5.404624 0.64355,-2.187929 1.56431,-3.960977 2.80548,-6.817953 -2.4459,-2.432099 -5.25565,-6.627208 -5.25565,-10.105398 V 3.6793854 C 129.68525,2.8428854 128.38703,0 128.00083,0 c -0.38611,0 -1.59324,2.8428854 -1.59324,3.6793854 V 27.434279 c 0,3.47819 -2.90071,7.673299 -5.34705,10.105398 1.24172,2.856976 2.16228,4.630024 2.80572,6.817953 0.64354,2.187632 0.51813,2.889078 -0.47784,5.404624 -4.89005,12.353999 -4.75438,31.013673 -0.31465,45.748944 0.62314,2.067462 -1.95378,4.385238 -3.66675,3.18629 -1.47965,-1.036088 -3.74828,0.166135 -3.74828,1.993552 0,2.60608 2.78285,3.14345 4.64893,1.89942 1.3511,-0.90076 3.41072,-1.28789 3.66804,-0.19388 0.25734,1.09403 0.57833,4.88991 0.62516,7.75498 -0.42878,-0.2248 -0.91673,-0.3512 -1.43441,-0.3512 -1.7081,0 -3.09358,1.38518 -3.09358,3.09359 0,1.61174 1.23407,2.93544 2.80852,3.07944 -4.58993,1.98273 -7.80283,6.54986 -7.80283,11.86714 z m 8.06417,-55.163074 c 0,-5.276325 0.75237,-17.493731 1.81216,-17.493731 1.06001,0 1.81106,12.217406 1.81106,17.493731 0,5.276345 -0.75105,17.493752 -1.81106,17.493752 -1.05979,0 -1.81216,-12.217407 -1.81216,-17.493752 z m 0.49027,55.163074 c 0,-2.41213 1.95549,-4.36785 4.36782,-4.36785 2.41213,0 4.36784,1.95572 4.36784,4.36785 0,2.41265 -1.95571,4.36936 -4.36784,4.36936 -2.41233,0 -4.36782,-1.95671 -4.36782,-4.36936 z m 2.46559,-28.700494 c 0,-0.514939 1.51612,-2.791525 1.90223,-2.791525 0.3862,0 1.90225,2.276586 1.90225,2.791525 0,0.450199 -1.0442,7.472824 -1.61719,9.072754 -0.14523,0.40608 -0.4019,0.43163 -0.5688,0.007 -0.61754,-1.57546 -1.61849,-8.627693 -1.61849,-9.078464 z m 3.20586,-26.46258 c 0,-5.276325 0.73279,-17.493731 1.7928,-17.493731 1.05987,0 1.79257,12.217406 1.79257,17.493731 0,5.276345 -0.7327,17.493752 -1.79257,17.493752 -1.06001,0 -1.7928,-12.217407 -1.7928,-17.493752 z" />
</svg>