<svg viewBox="0 0 256 256" version="1.1" id="root" xmlns="http://www.w3.org/2000/svg"
   xmlns:svg="http://www.w3.org/2000/svg">
   <path style="fill-rule:evenodd;stroke-width:0.850941"
      d="m 128,0 c -0.34272,0 -1.3125,1.876934 -1.3125,2.619141 v 26.361328 c 0.11345,3.425378 -1.68082,6.394994 -3.50781,8.792969 3.39312,10.161863 3.16571,10.257882 1.86328,16.03125 -3.24923,14.400866 -3.21583,28.070405 -0.58985,42.457031 0.9422,5.159481 1.47275,15.611481 1.45118,19.839841 -1.30222,-0.79646 -3.13282,0.0844 -3.13282,1.75782 0,1.0694 0.80479,1.94602 1.84766,2.04687 -3.12752,1.32251 -5.33203,4.41663 -5.33203,8.02539 0,4.81188 3.90096,8.71289 8.71289,8.71289 4.81163,0 8.71289,-3.90101 8.71289,-8.71289 0,-3.60876 -2.20451,-6.70288 -5.33203,-8.02539 1.04287,-0.10086 1.84766,-0.97747 1.84766,-2.04687 0,-1.67366 -1.8306,-2.55428 -3.13282,-1.75782 -0.0227,-4.22836 0.50922,-14.68036 1.45118,-19.839841 2.62596,-14.386626 2.65939,-28.056165 -0.58985,-42.457031 -1.30242,-5.773368 -1.53001,-5.869387 1.86328,-16.03125 -1.82663,-2.397975 -3.62199,-5.367591 -3.50781,-8.792969 V 2.619141 C 129.3125,1.762827 128.34266,0 128,0 Z m -1.50586,58.669922 c 0.10511,0.07948 0.18503,0.510798 0.24219,1.138672 0.11488,1.255966 0.23428,10.276662 -0.0488,15.300781 -0.39973,7.079114 -0.57151,14.787211 -0.68555,18.498047 -0.0295,0.970149 -0.28503,1.027071 -0.57031,-0.685547 -0.5802,-3.481007 -0.88179,-9.375786 -0.80273,-15.613281 0.0778,-6.237507 0.53856,-12.819179 1.48047,-17.671875 0.15057,-0.774989 0.27965,-1.046277 0.38476,-0.966797 z m 3.01172,0 c 0.10521,-0.07948 0.23425,0.191808 0.38476,0.966797 1.88418,9.705401 1.83814,26.323083 0.67774,33.285156 -0.28511,1.712618 -0.54069,1.655726 -0.57031,0.685547 -0.11335,-3.710846 -0.28576,-11.418915 -0.68555,-18.498047 -0.14209,-2.512022 -0.18236,-6.024365 -0.17383,-9.064453 0.0149,-3.04013 0.0678,-5.608356 0.125,-6.236328 0.0568,-0.627864 0.13698,-1.059194 0.24219,-1.138672 z M 128,121.96875 c 3.28611,-3.2e-4 5.95041,2.66311 5.95117,5.94922 3.2e-4,3.28687 -2.6643,5.95149 -5.95117,5.95117 -3.28687,3.2e-4 -5.95149,-2.6643 -5.95117,-5.95117 7.6e-4,-3.28611 2.66506,-5.94954 5.95117,-5.94922 z" />
</svg>