<svg viewBox="0 0 256 256" version="1.1" id="root" xmlns="http://www.w3.org/2000/svg"
   xmlns:svg="http://www.w3.org/2000/svg">
   <path
      d="m 126.50633,135.24309 c 0.0515,6.73066 -0.03,6.73156 -0.03,6.73156 -4.62811,0.72776 -8.17167,4.73431 -8.17167,9.56686 0,2.39388 0.88639,4.61391 2.32549,6.30415 -0.56365,-1.11562 -0.87955,-2.3748 -0.87955,-3.70998 0,-4.54993 3.68887,-8.2388 8.23855,-8.2388 4.54992,0 8.23859,3.68887 8.23859,8.2388 0,1.33518 -0.31576,2.59436 -0.87959,3.70998 1.4391,-1.69024 2.32549,-3.91027 2.32549,-6.30415 0,-4.82618 -3.53,-8.83062 -8.14976,-9.56549 0,0 -0.1035,-0.003 -0.0107,-6.73381 3.37144,-0.69471 5.90348,-3.68326 5.90348,-7.26022 0,-3.58078 -2.53055,-6.56346 -5.90671,-7.25438 C 129.49925,82.950547 129.03789,4.142697 128.80413,2.441 128.57081,0.739302 128,0 128,0 c 0,0 -0.57051,0.739302 -0.80404,2.441 -0.23339,1.701697 -0.68378,80.510602 -0.69311,118.28763 -3.37144,0.69453 -5.90471,3.67607 -5.90471,7.25336 0,3.58029 2.53375,6.57044 5.90996,7.2611 z m 1.51813,-12.28081 v 0 c 2.77207,0 5.01914,2.2475 5.01914,5.01971 0,2.77216 -2.24708,5.0192 -5.01914,5.0192 -2.77228,0 -5.01978,-2.24704 -5.01978,-5.0192 0,-2.77221 2.2475,-5.01971 5.01978,-5.01971 z"
      style="fill-rule:evenodd;stroke-width:0.711668" id="path12" />
</svg>